name analog
datacolumns 19
datarows 38
range 0.3255 0.34400000000000003
endheader
time	ground_force_vx	ground_force_vy	ground_force_vz	ground_force_px	ground_force_py	ground_force_pz	l_ground_force_vx	l_ground_force_vy	l_ground_force_vz	l_ground_force_px	l_ground_force_py	l_ground_force_pz	ground_torque_x	ground_torque_y	ground_torque_z	l_ground_torque_x	l_ground_torque_y	l_ground_torque_z
0.3255	-0.0	-0.0	-0.0	-0.2288377732038498	11.154873847961426	-313.877197265625	3.9542977809906006	-9.450420379638672	-315.4322509765625	-0.0	-0.0	-0.0	-0.0	-0.0	-0.0	79901.484375	688.9987182617188	-1991.02099609375
0.326	-0.0	-0.0	-0.0	0.8795717358589172	10.96303939819336	-321.5484619140625	4.929061412811279	-9.27377700805664	-323.4618835449219	-0.0	-0.0	-0.0	-0.0	-0.0	-0.0	82274.0390625	212.9658660888672	-1736.4967041015625
0.3265	-0.0	-0.0	-0.0	1.719910979270935	11.69256591796875	-330.625732421875	7.197988510131836	-9.61650276184082	-335.0389709472656	-0.0	-0.0	-0.0	-0.0	-0.0	-0.0	85233.6875	-24.149572372436523	-1425.348876953125
0.327	-0.0	-0.0	-0.0	3.771625280380249	11.448298454284668	-340.0534362792969	9.492053985595703	-9.526444435119627	-346.6986999511719	-0.0	-0.0	-0.0	-0.0	-0.0	-0.0	88886.1953125	-600.5850830078125	-920.136962890625
0.3275	-0.0	-0.0	-0.0	5.65720796585083	11.749907493591309	-353.0336608886719	11.84763526916504	-9.629836082458496	-362.3117980957031	-0.0	-0.0	-0.0	-0.0	-0.0	-0.0	92656.578125	-981.916259765625	-282.4509582519531
0.328	-0.0	-0.0	-0.0	8.61318302154541	12.745647430419922	-363.6783752441406	14.87900447845459	-9.417238235473633	-378.1312255859375	-0.0	-0.0	-0.0	-0.0	-0.0	-0.0	97256.4375	-1508.4361572265625	388.6436767578125
0.3285	-0.0	-0.0	-0.0	12.156990051269531	13.203468322753906	-379.861328125	17.6777286529541	-9.052491188049316	-392.7955932617188	-0.0	-0.0	-0.0	-0.0	-0.0	-0.0	101255.265625	-1963.6046142578125	1323.610595703125
0.329	-0.0	-0.0	-0.0	15.6360445022583	14.090206146240234	-393.9873046875	21.49640274047852	-7.948951721191406	-409.1414489746094	-0.0	-0.0	-0.0	-0.0	-0.0	-0.0	105607.4921875	-2311.298583984375	1971.095947265625
0.3295	-0.0	-0.0	-0.0	18.859533309936523	15.205215454101562	-412.6852722167969	24.26604461669922	-7.559823036193848	-423.45513916015625	-0.0	-0.0	-0.0	-0.0	-0.0	-0.0	110136.4140625	-2945.025146484375	2718.778076171875
0.33	-0.0	-0.0	-0.0	22.05894470214844	16.01416015625	-432.57666015625	26.974802017211918	-7.447957992553711	-439.3735961914063	-0.0	-0.0	-0.0	-0.0	-0.0	-0.0	114459.1328125	-3291.095703125	3203.3125
0.3305	-0.0	-0.0	-0.0	24.74700164794922	17.68940544128418	-451.0343627929688	29.42827606201172	-7.683986663818359	-455.7828369140625	-0.0	-0.0	-0.0	-0.0	-0.0	-0.0	118761.53125	-3659.2158203125	3600.39990234375
0.331	-0.0	-0.0	-0.0	27.05443572998047	18.10528564453125	-474.0824890136719	30.21501350402832	-9.10887050628662	-471.2375183105469	-0.0	-0.0	-0.0	-0.0	-0.0	-0.0	123731.8515625	-3650.480224609375	3699.386962890625
0.3315	-0.0	-0.0	-0.0	29.5334587097168	19.252166748046875	-494.331298828125	31.03706359863281	-10.48695945739746	-489.64886474609375	-0.0	-0.0	-0.0	-0.0	-0.0	-0.0	128481.9765625	-3906.368408203125	3727.4150390625
0.332	-0.0	-0.0	-0.0	32.270851135253906	20.739845275878903	-516.134521484375	31.46904754638672	-12.511306762695312	-506.8022766113281	-0.0	-0.0	-0.0	-0.0	-0.0	-0.0	132825.8125	-3819.673583984375	3709.221923828125
0.3325	-0.0	-0.0	-0.0	33.7099609375	22.30211067199707	-534.008056640625	32.39101791381836	-15.049266815185549	-523.8641357421875	-0.0	-0.0	-0.0	-0.0	-0.0	-0.0	137492.921875	-4487.41650390625	3956.788818359375
0.333	-0.0	-0.0	-0.0	34.07841491699219	24.83280563354492	-544.6613159179688	33.77910232543945	-17.95220184326172	-541.107421875	-0.0	-0.0	-0.0	-0.0	-0.0	-0.0	142200.671875	-4474.45751953125	4280.64990234375
0.3335	-0.0	-0.0	-0.0	33.451377868652344	26.01461601257324	-559.4017944335938	36.00792694091797	-21.70713233947754	-559.2617797851562	-0.0	-0.0	-0.0	-0.0	-0.0	-0.0	146475.78125	-4331.47705078125	4929.9599609375
0.334	-0.0	-0.0	-0.0	31.58052062988281	28.75494766235352	-570.6936645507812	38.85532379150391	-25.746875762939453	-577.0221557617188	-0.0	-0.0	-0.0	-0.0	-0.0	-0.0	152024.75	-4634.84912109375	5587.2734375
0.3345	-0.0	-0.0	-0.0	30.041296005249023	30.772615432739254	-579.439208984375	41.57149505615234	-29.66484642028809	-595.8685302734375	-0.0	-0.0	-0.0	-0.0	-0.0	-0.0	156107.328125	-4500.9765625	6332.9208984375
0.335	-0.0	-0.0	-0.0	28.425241470336918	32.6771125793457	-588.8401489257812	43.224609375	-32.879112243652344	-607.1746826171875	-0.0	-0.0	-0.0	-0.0	-0.0	-0.0	159124.171875	-4349.40576171875	6693.044921875
0.3355	-0.0	-0.0	-0.0	27.82249641418457	35.2735481262207	-594.7992553710938	43.78968048095703	-37.0840072631836	-614.682373046875	-0.0	-0.0	-0.0	-0.0	-0.0	-0.0	161490.25	-4192.08056640625	6959.380859375
0.336	-0.0	-0.0	-0.0	27.131105422973636	38.069786071777344	-601.9053344726562	43.60139465332031	-39.97654724121094	-621.0096435546875	-0.0	-0.0	-0.0	-0.0	-0.0	-0.0	162999.625	-3808.44189453125	6713.7861328125
0.3365	-0.0	-0.0	-0.0	27.509979248046875	40.33026123046875	-607.2070922851562	42.50348281860352	-43.52006530761719	-625.9854736328125	-0.0	-0.0	-0.0	-0.0	-0.0	-0.0	164139.78125	-3075.269775390625	6808.75634765625
0.337	-0.0	-0.0	-0.0	27.68816566467285	44.04137802124024	-608.6593627929688	42.32719802856445	-46.56731033325195	-628.9081420898438	-0.0	-0.0	-0.0	-0.0	-0.0	-0.0	164912.59375	-2233.20751953125	6488.693359375
0.3375	-0.0	-0.0	-0.0	28.88239479064941	46.9935188293457	-611.0444946289062	40.96091842651367	-49.95588684082031	-631.2233276367188	-0.0	-0.0	-0.0	-0.0	-0.0	-0.0	164747.15625	-1719.1912841796875	6527.9873046875
0.338	-0.0	-0.0	-0.0	28.936710357666016	50.35614776611328	-609.588623046875	40.71825408935547	-53.46689224243164	-629.1712646484375	-0.0	-0.0	-0.0	-0.0	-0.0	-0.0	164455.359375	-1406.756591796875	6307.76806640625
0.3385	-0.0	-0.0	-0.0	29.49640846252441	53.72728729248047	-607.7374877929688	40.13235855102539	-57.144134521484375	-627.1607055664062	-0.0	-0.0	-0.0	-0.0	-0.0	-0.0	163491.4375	-267.43438720703125	6199.4658203125
0.339	-0.0	-0.0	-0.0	30.12107276916504	56.1842041015625	-605.2234497070312	38.43309783935547	-60.03751373291016	-625.2466430664062	-0.0	-0.0	-0.0	-0.0	-0.0	-0.0	162496.0625	87.44046020507812	5793.00634765625
0.3395	-0.0	-0.0	-0.0	30.04905128479004	60.07389068603516	-598.8501586914062	37.790794372558594	-62.92720031738281	-620.0515747070312	-0.0	-0.0	-0.0	-0.0	-0.0	-0.0	161110.421875	1200.0654296875	5547.44873046875
0.34	-0.0	-0.0	-0.0	30.11669921875	63.58639907836914	-592.240966796875	37.070587158203125	-65.77418518066406	-616.4361572265625	-0.0	-0.0	-0.0	-0.0	-0.0	-0.0	159662.21875	2165.02587890625	5260.193359375
0.3405	-0.0	-0.0	-0.0	29.964250564575195	66.82149505615234	-585.6138916015625	36.51239013671875	-68.95842742919922	-609.0438232421875	-0.0	-0.0	-0.0	-0.0	-0.0	-0.0	157697.25	2731.494384765625	4892.53466796875
0.341	-0.0	-0.0	-0.0	29.49747085571289	70.81111907958984	-576.2249145507812	35.620243072509766	-71.7585220336914	-605.3064575195312	-0.0	-0.0	-0.0	-0.0	-0.0	-0.0	155329.09375	3748.46728515625	4611.9697265625
0.3415	-0.0	-0.0	-0.0	28.82149314880371	73.72117614746094	-567.5601806640625	35.00983428955078	-74.98917388916016	-597.3578491210938	-0.0	-0.0	-0.0	-0.0	-0.0	-0.0	153358.765625	4904.26025390625	4263.6826171875
0.342	-0.0	-0.0	-0.0	27.483842849731445	76.2027587890625	-561.0808715820312	33.92499923706055	-78.90858459472656	-590.7645263671875	-0.0	-0.0	-0.0	-0.0	-0.0	-0.0	150782.890625	5697.53466796875	3801.08154296875
0.3425	-0.0	-0.0	-0.0	26.18709754943848	79.01029968261719	-551.4349365234375	32.980072021484375	-81.7453842163086	-581.8067016601562	-0.0	-0.0	-0.0	-0.0	-0.0	-0.0	148211.8125	6817.89208984375	3347.927001953125
0.343	-0.0	-0.0	-0.0	24.563270568847656	81.54420471191406	-544.4431762695312	31.87747001647949	-84.99563598632812	-576.330078125	-0.0	-0.0	-0.0	-0.0	-0.0	-0.0	145967.84375	7403.7578125	2838.69921875
0.3435	-0.0	-0.0	-0.0	23.06532287597656	84.68392944335938	-536.6345825195312	31.087371826171875	-88.32168579101562	-570.277099609375	-0.0	-0.0	-0.0	-0.0	-0.0	-0.0	144056.34375	8605.2578125	2504.361572265625
0.34400000000000003	-0.0	-0.0	-0.0	21.420499801635746	86.88220977783203	-530.673828125	30.26943016052246	-91.47154235839844	-562.7540893554688	-0.0	-0.0	-0.0	-0.0	-0.0	-0.0	141182.0625	9192.0908203125	1926.45654296875
